<svg width="24" height="24" viewBox="0 0 24 24" fill="none" xmlns="http://www.w3.org/2000/svg">
<path d="M16.5904 6.10568C16.8833 5.81298 17.3591 5.81285 17.652 6.10568C17.9444 6.39846 17.9443 6.8734 17.652 7.16623L13.0602 11.757L17.651 16.3479C17.9439 16.6407 17.9438 17.1155 17.651 17.4084C17.3581 17.7013 16.8833 17.7013 16.5904 17.4084L11.9996 12.8176L7.40879 17.4084C7.11589 17.7013 6.64113 17.7013 6.34824 17.4084C6.05553 17.1155 6.05541 16.6407 6.34824 16.3479L10.9391 11.757L6.34824 7.16623C6.05555 6.87332 6.05541 6.39851 6.34824 6.10568C6.64107 5.81291 7.1159 5.813 7.40879 6.10568L11.9996 10.6965L16.5904 6.10568Z" fill="white"/>
</svg>
