<svg width="52" height="52" viewBox="0 0 52 52" fill="none" xmlns="http://www.w3.org/2000/svg">
<path d="M31.5237 23.7852C31.4087 23.6064 31.2112 23.5002 31 23.5002H26.625V16.6253C26.625 16.3303 26.4188 16.0753 26.1301 16.014C25.8363 15.9515 25.5488 16.1028 25.4288 16.3715L20.4289 27.6214C20.3426 27.8139 20.3614 28.0389 20.4764 28.2151C20.5914 28.3926 20.7889 28.5001 21.0001 28.5001H25.3751V35.375C25.3751 35.67 25.5813 35.925 25.8701 35.9862C25.9138 35.995 25.9576 36 26.0001 36C26.2425 36 26.4688 35.8587 26.5713 35.6288L31.5712 24.3789C31.6562 24.1852 31.64 23.9627 31.5237 23.7852Z" fill="white"/>
</svg>
