<svg width="24" height="24" viewBox="0 0 24 24" fill="none" xmlns="http://www.w3.org/2000/svg">
<path d="M6.11549 16.8704V14.2291C6.11549 13.3518 6.79942 12.5648 7.77132 12.5648C8.64424 12.5648 9.42716 13.2523 9.42716 14.2291V16.7709C9.42716 18.5347 7.9693 20 6.21448 20C4.45965 20 3.0018 18.5256 3.0018 16.7709V11.199C2.90281 6.11558 6.89841 2 11.9559 2C17.0134 2 21 6.11558 21 11.0995V16.6714C21 18.4352 19.5421 19.9005 17.7873 19.9005C16.0325 19.9005 14.5746 18.4352 14.5746 16.6714V14.1296C14.5746 13.2523 15.2586 12.4653 16.2305 12.4653C17.1034 12.4653 17.8863 13.1528 17.8863 14.1296V16.8704" stroke="white" stroke-width="1.5" stroke-linecap="round" stroke-linejoin="round"/>
<path d="M12.456 20.373C12.1271 20.1211 11.6564 20.1836 11.4045 20.5124C11.1527 20.8413 11.2151 21.312 11.544 21.5639L12 20.9684L12.456 20.373ZM19 19.5L18.376 19.084C18.2111 19.3313 17.8761 19.6371 17.3802 19.9343C16.8949 20.225 16.303 20.4787 15.6796 20.647C14.387 20.9958 13.1784 20.9262 12.456 20.373L12 20.9684L11.544 21.5639C12.8216 22.5422 14.613 22.4884 16.0704 22.0951C16.822 21.8923 17.5426 21.5856 18.1511 21.221C18.7489 20.8629 19.2889 20.4187 19.624 19.916L19 19.5Z" fill="white"/>
</svg>
